<svg xmlns="http://www.w3.org/2000/svg" viewBox="0 0 42 42"><defs><style>.cls-1{fill:#2dd4bf;}.cls-2{fill:#0d9488;}.cls-3{fill:#14b8a6;}</style></defs><g id="Layer_2" data-name="Layer 2"><g id="Layer_1-2" data-name="Layer 1"><path class="cls-1" d="M11.5,30.5a15.51,15.51,0,1,1,15-26,15.36,15.36,0,0,1,4,7,15.51,15.51,0,0,0-19,19Z"/><path class="cls-2" d="M26.48,26.49a15.46,15.46,0,0,1-15,4,15.51,15.51,0,0,1,19-19A15.47,15.47,0,0,1,26.48,26.49Z"/><path class="cls-3" d="M37.45,37.46a15.51,15.51,0,0,1-25.95-7,15.51,15.51,0,0,0,19-19,15.51,15.51,0,0,1,7,26Z"/></g></g></svg>