<svg xmlns="http://www.w3.org/2000/svg" viewBox="0 0 31.5 42"><defs><style>.cls-1{fill:#2dd4bf;}.cls-2{fill:#0d9488;}.cls-3{fill:#14b8a6;}</style></defs><g id="Layer_2" data-name="Layer 2"><g id="Layer_1-2" data-name="Layer 1"><path class="cls-1" d="M21,0V10.5A10.5,10.5,0,0,0,10.5,21V31.5A10.5,10.5,0,0,1,0,21,21,21,0,0,1,21,0Z"/><path class="cls-2" d="M21,10.5V21A10.5,10.5,0,0,1,10.5,31.5V21A10.5,10.5,0,0,1,21,10.5Z"/><path class="cls-3" d="M31.5,21a21,21,0,0,1-21,21V31.5A10.5,10.5,0,0,0,21,21V10.5A10.5,10.5,0,0,1,31.5,21Z"/></g></g></svg>